<svg xmlns="http://www.w3.org/2000/svg" xmlns:xlink="http://www.w3.org/1999/xlink" width="300" zoomAndPan="magnify" viewBox="0 0 224.87999 37.5" height="50" preserveAspectRatio="xMidYMid meet" version="1.2"><defs/><g id="9ae50da6b0"><g style="fill:#ffffff;fill-opacity:1;"><g transform="translate(60.473374, 35.559209)"><path style="stroke:none" d="M 4.015625 0 L 0.546875 0 L 0.546875 -4.828125 L 4.078125 -4.828125 C 4.710938 -4.828125 5.234375 -4.796875 5.640625 -4.734375 C 6.046875 -4.679688 6.359375 -4.59375 6.578125 -4.46875 C 6.796875 -4.351562 6.941406 -4.203125 7.015625 -4.015625 C 7.097656 -3.828125 7.140625 -3.597656 7.140625 -3.328125 C 7.140625 -3.128906 7.082031 -2.957031 6.96875 -2.8125 C 6.863281 -2.675781 6.738281 -2.578125 6.59375 -2.515625 C 6.457031 -2.453125 6.332031 -2.421875 6.21875 -2.421875 C 6.332031 -2.421875 6.457031 -2.398438 6.59375 -2.359375 C 6.738281 -2.316406 6.875 -2.253906 7 -2.171875 C 7.132812 -2.097656 7.242188 -2.003906 7.328125 -1.890625 C 7.421875 -1.773438 7.46875 -1.644531 7.46875 -1.5 C 7.46875 -1.3125 7.445312 -1.140625 7.40625 -0.984375 C 7.363281 -0.828125 7.273438 -0.6875 7.140625 -0.5625 C 7.015625 -0.445312 6.820312 -0.34375 6.5625 -0.25 C 6.3125 -0.164062 5.976562 -0.101562 5.5625 -0.0625 C 5.144531 -0.0195312 4.628906 0 4.015625 0 Z M 3.890625 -2.828125 C 4.191406 -2.828125 4.421875 -2.84375 4.578125 -2.875 C 4.742188 -2.90625 4.859375 -2.945312 4.921875 -3 C 4.984375 -3.0625 5.015625 -3.140625 5.015625 -3.234375 C 5.015625 -3.328125 4.984375 -3.40625 4.921875 -3.46875 C 4.859375 -3.53125 4.742188 -3.570312 4.578125 -3.59375 C 4.421875 -3.625 4.191406 -3.640625 3.890625 -3.640625 L 2.5625 -3.640625 L 2.5625 -2.828125 Z M 3.890625 -1.1875 C 4.191406 -1.1875 4.4375 -1.191406 4.625 -1.203125 C 4.820312 -1.222656 4.960938 -1.257812 5.046875 -1.3125 C 5.140625 -1.375 5.1875 -1.46875 5.1875 -1.59375 C 5.1875 -1.71875 5.140625 -1.804688 5.046875 -1.859375 C 4.960938 -1.921875 4.820312 -1.957031 4.625 -1.96875 C 4.4375 -1.988281 4.191406 -2 3.890625 -2 L 2.5625 -2 L 2.5625 -1.1875 Z M 3.890625 -1.1875 "/></g></g><g style="fill:#ffffff;fill-opacity:1;"><g transform="translate(67.479086, 35.559209)"><path style="stroke:none" d="M 4.71875 0 L 2.6875 0 L 2.6875 -2.296875 L 0.046875 -4.84375 L 2.296875 -4.84375 L 3.703125 -3.390625 L 5.109375 -4.84375 L 7.359375 -4.84375 L 4.71875 -2.296875 Z M 4.71875 0 "/></g><g transform="translate(74.889557, 35.559209)"><path style="stroke:none" d=""/></g><g transform="translate(76.603038, 35.559209)"><path style="stroke:none" d="M 8.484375 0 L 5.84375 0 L 3.765625 -1.625 L 2.5625 -0.796875 L 2.5625 0 L 0.546875 0 L 0.546875 -4.84375 L 2.5625 -4.84375 L 2.5625 -2.59375 L 5.828125 -4.84375 L 8.484375 -4.84375 L 5.015625 -2.46875 Z M 8.484375 0 "/></g><g transform="translate(85.14009, 35.559209)"><path style="stroke:none" d="M 6.359375 0 L 0.546875 0 L 0.546875 -4.84375 L 6.09375 -4.84375 L 6.09375 -3.640625 L 2.5625 -3.640625 L 2.5625 -2.890625 L 5.546875 -2.890625 L 5.546875 -1.953125 L 2.5625 -1.953125 L 2.5625 -1.203125 L 6.359375 -1.203125 Z M 6.359375 0 "/></g><g transform="translate(91.778145, 35.559209)"><path style="stroke:none" d="M 7.71875 0 L 5.296875 0 L 2.5625 -3.28125 L 2.5625 0 L 0.546875 0 L 0.546875 -4.84375 L 2.953125 -4.84375 L 5.6875 -1.578125 L 5.6875 -4.84375 L 7.71875 -4.84375 Z M 7.71875 0 "/></g><g transform="translate(100.03861, 35.559209)"><path style="stroke:none" d=""/></g><g transform="translate(101.752092, 35.559209)"><path style="stroke:none" d="M 8.484375 0 L 5.84375 0 L 3.765625 -1.625 L 2.5625 -0.796875 L 2.5625 0 L 0.546875 0 L 0.546875 -4.84375 L 2.5625 -4.84375 L 2.5625 -2.59375 L 5.828125 -4.84375 L 8.484375 -4.84375 L 5.015625 -2.46875 Z M 8.484375 0 "/></g><g transform="translate(110.289143, 35.559209)"><path style="stroke:none" d="M 8.125 0 L 6.0625 0 L 5.609375 -0.796875 L 2.5625 -0.796875 L 2.109375 0 L 0.046875 0 L 3.140625 -4.828125 L 5.03125 -4.828125 Z M 4.9375 -1.984375 L 4.09375 -3.453125 L 3.25 -1.984375 Z M 4.9375 -1.984375 "/></g><g transform="translate(118.468657, 35.559209)"><path style="stroke:none" d="M 2.5625 0 L 0.546875 0 L 0.546875 -4.84375 L 2.5625 -4.84375 Z M 2.5625 0 "/></g><g transform="translate(121.578559, 35.559209)"><path style="stroke:none" d=""/></g><g transform="translate(123.292041, 35.559209)"><path style="stroke:none" d="M 3.78125 0 L 0.546875 0 L 0.546875 -4.84375 L 3.78125 -4.84375 C 5.101562 -4.84375 6.054688 -4.65625 6.640625 -4.28125 C 7.097656 -3.976562 7.363281 -3.570312 7.4375 -3.0625 C 7.457031 -2.84375 7.46875 -2.628906 7.46875 -2.421875 C 7.46875 -2.210938 7.453125 -1.992188 7.421875 -1.765625 C 7.398438 -1.546875 7.328125 -1.332031 7.203125 -1.125 C 7.085938 -0.914062 6.894531 -0.722656 6.625 -0.546875 C 6.363281 -0.378906 6.003906 -0.242188 5.546875 -0.140625 C 5.085938 -0.046875 4.5 0 3.78125 0 Z M 3.578125 -1.203125 C 4.609375 -1.203125 5.191406 -1.460938 5.328125 -1.984375 C 5.367188 -2.128906 5.390625 -2.273438 5.390625 -2.421875 C 5.390625 -2.566406 5.367188 -2.710938 5.328125 -2.859375 C 5.296875 -3.003906 5.21875 -3.132812 5.09375 -3.25 C 4.976562 -3.363281 4.796875 -3.457031 4.546875 -3.53125 C 4.304688 -3.601562 3.984375 -3.640625 3.578125 -3.640625 L 2.5625 -3.640625 L 2.5625 -1.203125 Z M 3.578125 -1.203125 "/></g><g transform="translate(131.039811, 35.559209)"><path style="stroke:none" d="M 3.65625 0.109375 C 2.457031 0.109375 1.578125 -0.140625 1.015625 -0.640625 C 0.515625 -1.066406 0.265625 -1.660156 0.265625 -2.421875 C 0.265625 -3.171875 0.515625 -3.765625 1.015625 -4.203125 C 1.578125 -4.691406 2.457031 -4.9375 3.65625 -4.9375 C 4.851562 -4.9375 5.734375 -4.691406 6.296875 -4.203125 C 6.796875 -3.765625 7.046875 -3.171875 7.046875 -2.421875 C 7.046875 -1.660156 6.796875 -1.066406 6.296875 -0.640625 C 5.734375 -0.140625 4.851562 0.109375 3.65625 0.109375 Z M 3.65625 -1.1875 C 4.144531 -1.1875 4.503906 -1.328125 4.734375 -1.609375 C 4.921875 -1.835938 5.015625 -2.109375 5.015625 -2.421875 C 5.015625 -2.722656 4.921875 -2.988281 4.734375 -3.21875 C 4.503906 -3.5 4.144531 -3.640625 3.65625 -3.640625 C 3.164062 -3.640625 2.804688 -3.5 2.578125 -3.21875 C 2.390625 -2.988281 2.296875 -2.722656 2.296875 -2.421875 C 2.296875 -2.109375 2.390625 -1.835938 2.578125 -1.609375 C 2.804688 -1.328125 3.164062 -1.1875 3.65625 -1.1875 Z M 3.65625 -1.1875 "/></g><g transform="translate(138.359211, 35.559209)"><path style="stroke:none" d="M 6.359375 0 L 0.546875 0 L 0.546875 -4.84375 L 6.09375 -4.84375 L 6.09375 -3.640625 L 2.5625 -3.640625 L 2.5625 -2.890625 L 5.546875 -2.890625 L 5.546875 -1.953125 L 2.5625 -1.953125 L 2.5625 -1.203125 L 6.359375 -1.203125 Z M 6.359375 0 "/></g><g transform="translate(144.997266, 35.559209)"><path style="stroke:none" d="M 3.203125 0.109375 C 2.546875 0.109375 2.015625 0.0390625 1.609375 -0.09375 C 1.210938 -0.238281 0.910156 -0.4375 0.703125 -0.6875 C 0.492188 -0.9375 0.351562 -1.21875 0.28125 -1.53125 L 2.4375 -1.53125 C 2.59375 -1.300781 2.847656 -1.1875 3.203125 -1.1875 C 3.546875 -1.1875 3.796875 -1.300781 3.953125 -1.53125 C 3.972656 -1.5625 3.984375 -1.582031 3.984375 -1.59375 C 3.984375 -1.65625 3.898438 -1.703125 3.734375 -1.734375 C 3.578125 -1.765625 3.335938 -1.785156 3.015625 -1.796875 C 2.617188 -1.816406 2.195312 -1.863281 1.75 -1.9375 C 0.757812 -2.082031 0.265625 -2.476562 0.265625 -3.125 C 0.265625 -3.175781 0.269531 -3.234375 0.28125 -3.296875 C 0.351562 -3.617188 0.492188 -3.898438 0.703125 -4.140625 C 0.910156 -4.390625 1.210938 -4.582031 1.609375 -4.71875 C 2.015625 -4.863281 2.546875 -4.9375 3.203125 -4.9375 C 3.847656 -4.9375 4.367188 -4.863281 4.765625 -4.71875 C 5.171875 -4.582031 5.476562 -4.390625 5.6875 -4.140625 C 5.894531 -3.898438 6.035156 -3.617188 6.109375 -3.296875 L 3.953125 -3.296875 C 3.796875 -3.523438 3.546875 -3.640625 3.203125 -3.640625 C 2.847656 -3.640625 2.59375 -3.523438 2.4375 -3.296875 C 2.425781 -3.273438 2.421875 -3.257812 2.421875 -3.25 C 2.421875 -3.1875 2.492188 -3.140625 2.640625 -3.109375 C 2.796875 -3.085938 3.023438 -3.066406 3.328125 -3.046875 C 3.628906 -3.035156 3.945312 -3.007812 4.28125 -2.96875 C 4.625 -2.925781 4.941406 -2.851562 5.234375 -2.75 C 5.535156 -2.65625 5.769531 -2.507812 5.9375 -2.3125 C 6.0625 -2.164062 6.125 -1.976562 6.125 -1.75 C 6.125 -1.675781 6.117188 -1.601562 6.109375 -1.53125 C 6.035156 -1.21875 5.894531 -0.9375 5.6875 -0.6875 C 5.476562 -0.4375 5.171875 -0.238281 4.765625 -0.09375 C 4.367188 0.0390625 3.847656 0.109375 3.203125 0.109375 Z M 3.203125 0.109375 "/></g><g transform="translate(151.399211, 35.559209)"><path style="stroke:none" d=""/></g><g transform="translate(153.112693, 35.559209)"><path style="stroke:none" d="M 8.125 0 L 6.0625 0 L 5.609375 -0.796875 L 2.5625 -0.796875 L 2.109375 0 L 0.046875 0 L 3.140625 -4.828125 L 5.03125 -4.828125 Z M 4.9375 -1.984375 L 4.09375 -3.453125 L 3.25 -1.984375 Z M 4.9375 -1.984375 "/></g><g transform="translate(161.292207, 35.559209)"><path style="stroke:none" d="M 2.5625 0 L 0.546875 0 L 0.546875 -4.84375 L 2.5625 -4.84375 Z M 2.5625 0 "/></g></g><g style="fill:#ffffff;fill-opacity:1;"><g transform="translate(6.250357, 9.753385)"><path style="stroke:none" d="M 6.621094 -2.515625 L 6.621094 -2.847656 L 3.640625 -5.828125 L 3.308594 -5.828125 Z M 6.621094 0.792969 L 6.621094 0.464844 L 0.332031 -5.828125 L 0 -5.828125 Z M 3.308594 0.792969 L 3.640625 0.792969 L 0 -2.847656 L 0 -2.515625 Z M 0 0.792969 L 0.332031 0.792969 L 0 0.464844 Z M 0 0.792969 "/></g></g><g style="fill:#ffffff;fill-opacity:1;"><g transform="translate(12.871025, 9.753385)"><path style="stroke:none" d="M 0 0.792969 L 6.621094 0.792969 L 6.621094 -5.828125 L 0 -5.828125 Z M 0 0.792969 "/></g></g><g style="fill:#ffffff;fill-opacity:1;"><g transform="translate(19.491693, 9.753385)"><path style="stroke:none" d="M 0 -2.515625 L 6.621094 -2.515625 L 6.621094 -5.828125 L 0 -5.828125 Z M 0 -2.515625 "/></g></g><g style="fill:#ffffff;fill-opacity:1;"><g transform="translate(26.112361, 9.753385)"><path style="stroke:none" d="M 0 -2.515625 L 6.621094 -2.515625 L 6.621094 -5.828125 L 0 -5.828125 Z M 0 -2.515625 "/></g></g><g style="fill:#ffffff;fill-opacity:1;"><g transform="translate(32.733029, 9.753385)"><path style="stroke:none" d="M 6.621094 -2.515625 L 6.621094 -2.847656 L 3.640625 -5.828125 L 3.308594 -5.828125 Z M 6.621094 0.792969 L 6.621094 0.464844 L 0.332031 -5.828125 L 0 -5.828125 Z M 3.308594 0.792969 L 3.640625 0.792969 L 0 -2.847656 L 0 -2.515625 Z M 0 0.792969 L 0.332031 0.792969 L 0 0.464844 Z M 0 0.792969 "/></g></g><g style="fill:#ffffff;fill-opacity:1;"><g transform="translate(39.353698, 9.753385)"><path style="stroke:none" d="M 0 0.792969 L 6.621094 0.792969 L 6.621094 -5.828125 L 0 -5.828125 Z M 0 0.792969 "/></g></g><g style="fill:#ffffff;fill-opacity:1;"><g transform="translate(45.974366, 9.753385)"><path style="stroke:none" d="M 0 -2.515625 L 6.621094 -2.515625 L 6.621094 -5.828125 L 0 -5.828125 Z M 0 -2.515625 "/></g></g><g style="fill:#ffffff;fill-opacity:1;"><g transform="translate(52.595034, 9.753385)"><path style="stroke:none" d="M 0 0.792969 L 6.621094 0.792969 L 6.621094 -5.828125 L 0 -5.828125 Z M 0 0.792969 "/></g></g><g style="fill:#ffffff;fill-opacity:1;"><g transform="translate(59.215702, 9.753385)"><path style="stroke:none" d="M 6.621094 -2.515625 L 6.621094 -2.847656 L 3.640625 -5.828125 L 3.308594 -5.828125 Z M 6.621094 0.792969 L 6.621094 0.464844 L 0.332031 -5.828125 L 0 -5.828125 Z M 3.308594 0.792969 L 3.640625 0.792969 L 0 -2.847656 L 0 -2.515625 Z M 0 0.792969 L 0.332031 0.792969 L 0 0.464844 Z M 0 0.792969 "/></g></g><g style="fill:#ffffff;fill-opacity:1;"><g transform="translate(65.83637, 9.753385)"><path style="stroke:none" d="M 0 0.792969 L 6.621094 0.792969 L 6.621094 -5.828125 L 0 -5.828125 Z M 0 0.792969 "/></g></g><g style="fill:#ffffff;fill-opacity:1;"><g transform="translate(72.457038, 9.753385)"><path style="stroke:none" d="M 0 -2.515625 L 6.621094 -2.515625 L 6.621094 -5.828125 L 0 -5.828125 Z M 0 -2.515625 "/></g></g><g style="fill:#ffffff;fill-opacity:1;"><g transform="translate(79.077706, 9.753385)"><path style="stroke:none" d="M 0 -2.515625 L 6.621094 -2.515625 L 6.621094 -5.828125 L 0 -5.828125 Z M 0 -2.515625 "/></g></g><g style="fill:#ffffff;fill-opacity:1;"><g transform="translate(85.698374, 9.753385)"><path style="stroke:none" d="M 6.621094 -2.515625 L 6.621094 -2.847656 L 3.640625 -5.828125 L 3.308594 -5.828125 Z M 6.621094 0.792969 L 6.621094 0.464844 L 0.332031 -5.828125 L 0 -5.828125 Z M 3.308594 0.792969 L 3.640625 0.792969 L 0 -2.847656 L 0 -2.515625 Z M 0 0.792969 L 0.332031 0.792969 L 0 0.464844 Z M 0 0.792969 "/></g></g><g style="fill:#ffffff;fill-opacity:1;"><g transform="translate(92.319043, 9.753385)"><path style="stroke:none" d="M 0 -2.515625 L 6.621094 -2.515625 L 6.621094 -5.828125 L 0 -5.828125 Z M 0 -2.515625 "/></g></g><g style="fill:#ffffff;fill-opacity:1;"><g transform="translate(98.939711, 9.753385)"><path style="stroke:none" d="M 0 -2.515625 L 6.621094 -2.515625 L 6.621094 -5.828125 L 0 -5.828125 Z M 0 -2.515625 "/></g></g><g style="fill:#ffffff;fill-opacity:1;"><g transform="translate(105.560379, 9.753385)"><path style="stroke:none" d="M 0 0.792969 L 6.621094 0.792969 L 6.621094 -5.828125 L 0 -5.828125 Z M 0 0.792969 "/></g></g><g style="fill:#ffffff;fill-opacity:1;"><g transform="translate(112.181047, 9.753385)"><path style="stroke:none" d="M 6.621094 -2.515625 L 6.621094 -2.847656 L 3.640625 -5.828125 L 3.308594 -5.828125 Z M 6.621094 0.792969 L 6.621094 0.464844 L 0.332031 -5.828125 L 0 -5.828125 Z M 3.308594 0.792969 L 3.640625 0.792969 L 0 -2.847656 L 0 -2.515625 Z M 0 0.792969 L 0.332031 0.792969 L 0 0.464844 Z M 0 0.792969 "/></g></g><g style="fill:#ffffff;fill-opacity:1;"><g transform="translate(118.801715, 9.753385)"><path style="stroke:none" d="M 0 0.792969 L 6.621094 0.792969 L 6.621094 -5.828125 L 0 -5.828125 Z M 0 0.792969 "/></g></g><g style="fill:#ffffff;fill-opacity:1;"><g transform="translate(125.422383, 9.753385)"><path style="stroke:none" d="M 6.621094 -2.515625 L 6.621094 -2.847656 L 3.640625 -5.828125 L 3.308594 -5.828125 Z M 6.621094 0.792969 L 6.621094 0.464844 L 0.332031 -5.828125 L 0 -5.828125 Z M 3.308594 0.792969 L 3.640625 0.792969 L 0 -2.847656 L 0 -2.515625 Z M 0 0.792969 L 0.332031 0.792969 L 0 0.464844 Z M 0 0.792969 "/></g></g><g style="fill:#ffffff;fill-opacity:1;"><g transform="translate(132.043051, 9.753385)"><path style="stroke:none" d="M 6.621094 -2.515625 L 6.621094 -2.847656 L 3.640625 -5.828125 L 3.308594 -5.828125 Z M 6.621094 0.792969 L 6.621094 0.464844 L 0.332031 -5.828125 L 0 -5.828125 Z M 3.308594 0.792969 L 3.640625 0.792969 L 0 -2.847656 L 0 -2.515625 Z M 0 0.792969 L 0.332031 0.792969 L 0 0.464844 Z M 0 0.792969 "/></g></g><g style="fill:#ffffff;fill-opacity:1;"><g transform="translate(138.66372, 9.753385)"><path style="stroke:none" d="M 6.621094 -2.515625 L 6.621094 -2.847656 L 3.640625 -5.828125 L 3.308594 -5.828125 Z M 6.621094 0.792969 L 6.621094 0.464844 L 0.332031 -5.828125 L 0 -5.828125 Z M 3.308594 0.792969 L 3.640625 0.792969 L 0 -2.847656 L 0 -2.515625 Z M 0 0.792969 L 0.332031 0.792969 L 0 0.464844 Z M 0 0.792969 "/></g></g><g style="fill:#ffffff;fill-opacity:1;"><g transform="translate(145.284388, 9.753385)"><path style="stroke:none" d="M 0 0.792969 L 6.621094 0.792969 L 6.621094 -5.828125 L 0 -5.828125 Z M 0 0.792969 "/></g></g><g style="fill:#ffffff;fill-opacity:1;"><g transform="translate(151.905056, 9.753385)"><path style="stroke:none" d="M 0 -2.515625 L 6.621094 -2.515625 L 6.621094 -5.828125 L 0 -5.828125 Z M 0 -2.515625 "/></g></g><g style="fill:#ffffff;fill-opacity:1;"><g transform="translate(158.525724, 9.753385)"><path style="stroke:none" d="M 0 -2.515625 L 6.621094 -2.515625 L 6.621094 -5.828125 L 0 -5.828125 Z M 0 -2.515625 "/></g></g><g style="fill:#ffffff;fill-opacity:1;"><g transform="translate(165.146392, 9.753385)"><path style="stroke:none" d="M 6.621094 -2.515625 L 6.621094 -2.847656 L 3.640625 -5.828125 L 3.308594 -5.828125 Z M 6.621094 0.792969 L 6.621094 0.464844 L 0.332031 -5.828125 L 0 -5.828125 Z M 3.308594 0.792969 L 3.640625 0.792969 L 0 -2.847656 L 0 -2.515625 Z M 0 0.792969 L 0.332031 0.792969 L 0 0.464844 Z M 0 0.792969 "/></g></g><g style="fill:#ffffff;fill-opacity:1;"><g transform="translate(171.76706, 9.753385)"><path style="stroke:none" d="M 0 0.792969 L 6.621094 0.792969 L 6.621094 -5.828125 L 0 -5.828125 Z M 0 0.792969 "/></g></g><g style="fill:#ffffff;fill-opacity:1;"><g transform="translate(178.387728, 9.753385)"><path style="stroke:none" d="M 0 -2.515625 L 6.621094 -2.515625 L 6.621094 -5.828125 L 0 -5.828125 Z M 0 -2.515625 "/></g></g><g style="fill:#ffffff;fill-opacity:1;"><g transform="translate(185.008397, 9.753385)"><path style="stroke:none" d="M 0 -2.515625 L 6.621094 -2.515625 L 6.621094 -5.828125 L 0 -5.828125 Z M 0 -2.515625 "/></g></g><g style="fill:#ffffff;fill-opacity:1;"><g transform="translate(191.629065, 9.753385)"><path style="stroke:none" d="M 6.621094 -2.515625 L 6.621094 -2.847656 L 3.640625 -5.828125 L 3.308594 -5.828125 Z M 6.621094 0.792969 L 6.621094 0.464844 L 0.332031 -5.828125 L 0 -5.828125 Z M 3.308594 0.792969 L 3.640625 0.792969 L 0 -2.847656 L 0 -2.515625 Z M 0 0.792969 L 0.332031 0.792969 L 0 0.464844 Z M 0 0.792969 "/></g></g><g style="fill:#ffffff;fill-opacity:1;"><g transform="translate(198.249733, 9.753385)"><path style="stroke:none" d="M 0 0.792969 L 6.621094 0.792969 L 6.621094 -5.828125 L 0 -5.828125 Z M 0 0.792969 "/></g></g><g style="fill:#ffffff;fill-opacity:1;"><g transform="translate(204.870401, 9.753385)"><path style="stroke:none" d="M 0 -2.515625 L 6.621094 -2.515625 L 6.621094 -5.828125 L 0 -5.828125 Z M 0 -2.515625 "/></g></g><g style="fill:#ffffff;fill-opacity:1;"><g transform="translate(211.491069, 9.753385)"><path style="stroke:none" d="M 0 -2.515625 L 6.621094 -2.515625 L 6.621094 -5.828125 L 0 -5.828125 Z M 0 -2.515625 "/></g></g><g style="fill:#ffffff;fill-opacity:1;"><g transform="translate(6.250357, 18.856786)"><path style="stroke:none" d="M 6.621094 -2.515625 L 6.621094 -2.847656 L 3.640625 -5.828125 L 3.308594 -5.828125 Z M 6.621094 0.792969 L 6.621094 0.464844 L 0.332031 -5.828125 L 0 -5.828125 Z M 3.308594 0.792969 L 3.640625 0.792969 L 0 -2.847656 L 0 -2.515625 Z M 0 0.792969 L 0.332031 0.792969 L 0 0.464844 Z M 0 0.792969 "/></g></g><g style="fill:#ffffff;fill-opacity:1;"><g transform="translate(12.871025, 18.856786)"><path style="stroke:none" d="M 0 0.792969 L 6.621094 0.792969 L 6.621094 -5.828125 L 0 -5.828125 Z M 0 0.792969 "/></g></g><g style="fill:#ffffff;fill-opacity:1;"><g transform="translate(19.491693, 18.856786)"><path style="stroke:none" d="M 0 -2.515625 L 6.621094 -2.515625 L 6.621094 -5.828125 L 0 -5.828125 Z M 0 -2.515625 "/></g></g><g style="fill:#ffffff;fill-opacity:1;"><g transform="translate(26.112361, 18.856786)"><path style="stroke:none" d="M 0 -2.515625 L 6.621094 -2.515625 L 6.621094 -5.828125 L 0 -5.828125 Z M 0 -2.515625 "/></g></g><g style="fill:#ffffff;fill-opacity:1;"><g transform="translate(32.733029, 18.856786)"><path style="stroke:none" d="M 6.621094 -2.515625 L 6.621094 -2.847656 L 3.640625 -5.828125 L 3.308594 -5.828125 Z M 6.621094 0.792969 L 6.621094 0.464844 L 0.332031 -5.828125 L 0 -5.828125 Z M 3.308594 0.792969 L 3.640625 0.792969 L 0 -2.847656 L 0 -2.515625 Z M 0 0.792969 L 0.332031 0.792969 L 0 0.464844 Z M 0 0.792969 "/></g></g><g style="fill:#ffffff;fill-opacity:1;"><g transform="translate(39.353698, 18.856786)"><path style="stroke:none" d="M 0 0.792969 L 6.621094 0.792969 L 6.621094 -5.828125 L 0 -5.828125 Z M 0 0.792969 "/></g></g><g style="fill:#ffffff;fill-opacity:1;"><g transform="translate(45.974366, 18.856786)"><path style="stroke:none" d="M 0 -2.515625 L 6.621094 -2.515625 L 6.621094 -5.828125 L 0 -5.828125 Z M 0 -2.515625 "/></g></g><g style="fill:#ffffff;fill-opacity:1;"><g transform="translate(52.595034, 18.856786)"><path style="stroke:none" d="M 0 0.792969 L 6.621094 0.792969 L 6.621094 -5.828125 L 0 -5.828125 Z M 0 0.792969 "/></g></g><g style="fill:#ffffff;fill-opacity:1;"><g transform="translate(59.215702, 18.856786)"><path style="stroke:none" d="M 6.621094 -2.515625 L 6.621094 -2.847656 L 3.640625 -5.828125 L 3.308594 -5.828125 Z M 6.621094 0.792969 L 6.621094 0.464844 L 0.332031 -5.828125 L 0 -5.828125 Z M 3.308594 0.792969 L 3.640625 0.792969 L 0 -2.847656 L 0 -2.515625 Z M 0 0.792969 L 0.332031 0.792969 L 0 0.464844 Z M 0 0.792969 "/></g></g><g style="fill:#ffffff;fill-opacity:1;"><g transform="translate(65.83637, 18.856786)"><path style="stroke:none" d="M 0 0.792969 L 6.621094 0.792969 L 6.621094 -5.828125 L 0 -5.828125 Z M 0 0.792969 "/></g></g><g style="fill:#ffffff;fill-opacity:1;"><g transform="translate(72.457038, 18.856786)"><path style="stroke:none" d="M 6.621094 -2.515625 L 6.621094 -2.847656 L 3.640625 -5.828125 L 3.308594 -5.828125 Z M 6.621094 0.792969 L 6.621094 0.464844 L 0.332031 -5.828125 L 0 -5.828125 Z M 3.308594 0.792969 L 3.640625 0.792969 L 0 -2.847656 L 0 -2.515625 Z M 0 0.792969 L 0.332031 0.792969 L 0 0.464844 Z M 0 0.792969 "/></g></g><g style="fill:#ffffff;fill-opacity:1;"><g transform="translate(79.077706, 18.856786)"><path style="stroke:none" d="M 6.621094 -2.515625 L 6.621094 -2.847656 L 3.640625 -5.828125 L 3.308594 -5.828125 Z M 6.621094 0.792969 L 6.621094 0.464844 L 0.332031 -5.828125 L 0 -5.828125 Z M 3.308594 0.792969 L 3.640625 0.792969 L 0 -2.847656 L 0 -2.515625 Z M 0 0.792969 L 0.332031 0.792969 L 0 0.464844 Z M 0 0.792969 "/></g></g><g style="fill:#ffffff;fill-opacity:1;"><g transform="translate(85.698374, 18.856786)"><path style="stroke:none" d="M 6.621094 -2.515625 L 6.621094 -2.847656 L 3.640625 -5.828125 L 3.308594 -5.828125 Z M 6.621094 0.792969 L 6.621094 0.464844 L 0.332031 -5.828125 L 0 -5.828125 Z M 3.308594 0.792969 L 3.640625 0.792969 L 0 -2.847656 L 0 -2.515625 Z M 0 0.792969 L 0.332031 0.792969 L 0 0.464844 Z M 0 0.792969 "/></g></g><g style="fill:#ffffff;fill-opacity:1;"><g transform="translate(92.319043, 18.856786)"><path style="stroke:none" d="M 6.621094 -2.515625 L 6.621094 -2.847656 L 3.640625 -5.828125 L 3.308594 -5.828125 Z M 6.621094 0.792969 L 6.621094 0.464844 L 0.332031 -5.828125 L 0 -5.828125 Z M 3.308594 0.792969 L 3.640625 0.792969 L 0 -2.847656 L 0 -2.515625 Z M 0 0.792969 L 0.332031 0.792969 L 0 0.464844 Z M 0 0.792969 "/></g></g><g style="fill:#ffffff;fill-opacity:1;"><g transform="translate(98.939711, 18.856786)"><path style="stroke:none" d="M 0 -2.515625 L 6.621094 -2.515625 L 6.621094 -5.828125 L 0 -5.828125 Z M 0 -2.515625 "/></g></g><g style="fill:#ffffff;fill-opacity:1;"><g transform="translate(105.560379, 18.856786)"><path style="stroke:none" d="M 0 0.792969 L 6.621094 0.792969 L 6.621094 -2.515625 L 0 -2.515625 Z M 0 0.792969 "/></g></g><g style="fill:#ffffff;fill-opacity:1;"><g transform="translate(112.181047, 18.856786)"><path style="stroke:none" d="M 6.621094 -2.515625 L 6.621094 -2.847656 L 3.640625 -5.828125 L 3.308594 -5.828125 Z M 6.621094 0.792969 L 6.621094 0.464844 L 0.332031 -5.828125 L 0 -5.828125 Z M 3.308594 0.792969 L 3.640625 0.792969 L 0 -2.847656 L 0 -2.515625 Z M 0 0.792969 L 0.332031 0.792969 L 0 0.464844 Z M 0 0.792969 "/></g></g><g style="fill:#ffffff;fill-opacity:1;"><g transform="translate(118.801715, 18.856786)"><path style="stroke:none" d="M 0 0.792969 L 6.621094 0.792969 L 6.621094 -5.828125 L 0 -5.828125 Z M 0 0.792969 "/></g></g><g style="fill:#ffffff;fill-opacity:1;"><g transform="translate(125.422383, 18.856786)"><path style="stroke:none" d="M 6.621094 -2.515625 L 6.621094 -2.847656 L 3.640625 -5.828125 L 3.308594 -5.828125 Z M 6.621094 0.792969 L 6.621094 0.464844 L 0.332031 -5.828125 L 0 -5.828125 Z M 3.308594 0.792969 L 3.640625 0.792969 L 0 -2.847656 L 0 -2.515625 Z M 0 0.792969 L 0.332031 0.792969 L 0 0.464844 Z M 0 0.792969 "/></g></g><g style="fill:#ffffff;fill-opacity:1;"><g transform="translate(132.043051, 18.856786)"><path style="stroke:none" d="M 6.621094 -2.515625 L 6.621094 -2.847656 L 3.640625 -5.828125 L 3.308594 -5.828125 Z M 6.621094 0.792969 L 6.621094 0.464844 L 0.332031 -5.828125 L 0 -5.828125 Z M 3.308594 0.792969 L 3.640625 0.792969 L 0 -2.847656 L 0 -2.515625 Z M 0 0.792969 L 0.332031 0.792969 L 0 0.464844 Z M 0 0.792969 "/></g></g><g style="fill:#ffffff;fill-opacity:1;"><g transform="translate(138.66372, 18.856786)"><path style="stroke:none" d="M 6.621094 -2.515625 L 6.621094 -2.847656 L 3.640625 -5.828125 L 3.308594 -5.828125 Z M 6.621094 0.792969 L 6.621094 0.464844 L 0.332031 -5.828125 L 0 -5.828125 Z M 3.308594 0.792969 L 3.640625 0.792969 L 0 -2.847656 L 0 -2.515625 Z M 0 0.792969 L 0.332031 0.792969 L 0 0.464844 Z M 0 0.792969 "/></g></g><g style="fill:#ffffff;fill-opacity:1;"><g transform="translate(145.284388, 18.856786)"><path style="stroke:none" d="M 0 0.792969 L 6.621094 0.792969 L 6.621094 -5.828125 L 0 -5.828125 Z M 0 0.792969 "/></g></g><g style="fill:#ffffff;fill-opacity:1;"><g transform="translate(151.905056, 18.856786)"><path style="stroke:none" d="M 0 -2.515625 L 6.621094 -2.515625 L 6.621094 -5.828125 L 0 -5.828125 Z M 0 -2.515625 "/></g></g><g style="fill:#ffffff;fill-opacity:1;"><g transform="translate(158.525724, 18.856786)"><path style="stroke:none" d="M 0 -2.515625 L 6.621094 -2.515625 L 6.621094 -5.828125 L 0 -5.828125 Z M 0 -2.515625 "/></g></g><g style="fill:#ffffff;fill-opacity:1;"><g transform="translate(165.146392, 18.856786)"><path style="stroke:none" d="M 6.621094 -2.515625 L 6.621094 -2.847656 L 3.640625 -5.828125 L 3.308594 -5.828125 Z M 6.621094 0.792969 L 6.621094 0.464844 L 0.332031 -5.828125 L 0 -5.828125 Z M 3.308594 0.792969 L 3.640625 0.792969 L 0 -2.847656 L 0 -2.515625 Z M 0 0.792969 L 0.332031 0.792969 L 0 0.464844 Z M 0 0.792969 "/></g></g><g style="fill:#ffffff;fill-opacity:1;"><g transform="translate(171.76706, 18.856786)"><path style="stroke:none" d="M 0 -2.515625 L 6.621094 -2.515625 L 6.621094 -5.828125 L 0 -5.828125 Z M 0 -2.515625 "/></g></g><g style="fill:#ffffff;fill-opacity:1;"><g transform="translate(178.387728, 18.856786)"><path style="stroke:none" d="M 0 -2.515625 L 6.621094 -2.515625 L 6.621094 -5.828125 L 0 -5.828125 Z M 0 -2.515625 "/></g></g><g style="fill:#ffffff;fill-opacity:1;"><g transform="translate(185.008397, 18.856786)"><path style="stroke:none" d="M 0 0.792969 L 6.621094 0.792969 L 6.621094 -5.828125 L 0 -5.828125 Z M 0 0.792969 "/></g></g><g style="fill:#ffffff;fill-opacity:1;"><g transform="translate(191.629065, 18.856786)"><path style="stroke:none" d="M 6.621094 -2.515625 L 6.621094 -2.847656 L 3.640625 -5.828125 L 3.308594 -5.828125 Z M 6.621094 0.792969 L 6.621094 0.464844 L 0.332031 -5.828125 L 0 -5.828125 Z M 3.308594 0.792969 L 3.640625 0.792969 L 0 -2.847656 L 0 -2.515625 Z M 0 0.792969 L 0.332031 0.792969 L 0 0.464844 Z M 0 0.792969 "/></g></g><g style="fill:#ffffff;fill-opacity:1;"><g transform="translate(198.249733, 18.856786)"><path style="stroke:none" d="M 0 -2.515625 L 6.621094 -2.515625 L 6.621094 -5.828125 L 0 -5.828125 Z M 0 -2.515625 "/></g></g><g style="fill:#ffffff;fill-opacity:1;"><g transform="translate(204.870401, 18.856786)"><path style="stroke:none" d="M 0 -2.515625 L 6.621094 -2.515625 L 6.621094 -5.828125 L 0 -5.828125 Z M 0 -2.515625 "/></g></g><g style="fill:#ffffff;fill-opacity:1;"><g transform="translate(211.491069, 18.856786)"><path style="stroke:none" d="M 0 0.792969 L 6.621094 0.792969 L 6.621094 -5.828125 L 0 -5.828125 Z M 0 0.792969 "/></g></g><g style="fill:#ffffff;fill-opacity:1;"><g transform="translate(6.250357, 27.960187)"><path style="stroke:none" d="M 6.621094 -2.515625 L 6.621094 -2.847656 L 3.640625 -5.828125 L 3.308594 -5.828125 Z M 6.621094 0.792969 L 6.621094 0.464844 L 0.332031 -5.828125 L 0 -5.828125 Z M 3.308594 0.792969 L 3.640625 0.792969 L 0 -2.847656 L 0 -2.515625 Z M 0 0.792969 L 0.332031 0.792969 L 0 0.464844 Z M 0 0.792969 "/></g></g><g style="fill:#ffffff;fill-opacity:1;"><g transform="translate(12.871025, 27.960187)"><path style="stroke:none" d="M 0 -2.515625 L 6.621094 -2.515625 L 6.621094 -5.828125 L 0 -5.828125 Z M 0 -2.515625 "/></g></g><g style="fill:#ffffff;fill-opacity:1;"><g transform="translate(19.491693, 27.960187)"><path style="stroke:none" d="M 6.621094 -2.515625 L 6.621094 -2.847656 L 3.640625 -5.828125 L 3.308594 -5.828125 Z M 6.621094 0.792969 L 6.621094 0.464844 L 0.332031 -5.828125 L 0 -5.828125 Z M 3.308594 0.792969 L 3.640625 0.792969 L 0 -2.847656 L 0 -2.515625 Z M 0 0.792969 L 0.332031 0.792969 L 0 0.464844 Z M 0 0.792969 "/></g></g><g style="fill:#ffffff;fill-opacity:1;"><g transform="translate(26.112361, 27.960187)"><path style="stroke:none" d="M 6.621094 -2.515625 L 6.621094 -2.847656 L 3.640625 -5.828125 L 3.308594 -5.828125 Z M 6.621094 0.792969 L 6.621094 0.464844 L 0.332031 -5.828125 L 0 -5.828125 Z M 3.308594 0.792969 L 3.640625 0.792969 L 0 -2.847656 L 0 -2.515625 Z M 0 0.792969 L 0.332031 0.792969 L 0 0.464844 Z M 0 0.792969 "/></g></g><g style="fill:#ffffff;fill-opacity:1;"><g transform="translate(32.733029, 27.960187)"><path style="stroke:none" d="M 6.621094 -2.515625 L 6.621094 -2.847656 L 3.640625 -5.828125 L 3.308594 -5.828125 Z M 6.621094 0.792969 L 6.621094 0.464844 L 0.332031 -5.828125 L 0 -5.828125 Z M 3.308594 0.792969 L 3.640625 0.792969 L 0 -2.847656 L 0 -2.515625 Z M 0 0.792969 L 0.332031 0.792969 L 0 0.464844 Z M 0 0.792969 "/></g></g><g style="fill:#ffffff;fill-opacity:1;"><g transform="translate(39.353698, 27.960187)"><path style="stroke:none" d="M 0 -2.515625 L 6.621094 -2.515625 L 6.621094 -5.828125 L 0 -5.828125 Z M 0 -2.515625 "/></g></g><g style="fill:#ffffff;fill-opacity:1;"><g transform="translate(45.974366, 27.960187)"><path style="stroke:none" d="M 6.621094 -2.515625 L 6.621094 -2.847656 L 3.640625 -5.828125 L 3.308594 -5.828125 Z M 6.621094 0.792969 L 6.621094 0.464844 L 0.332031 -5.828125 L 0 -5.828125 Z M 3.308594 0.792969 L 3.640625 0.792969 L 0 -2.847656 L 0 -2.515625 Z M 0 0.792969 L 0.332031 0.792969 L 0 0.464844 Z M 0 0.792969 "/></g></g><g style="fill:#ffffff;fill-opacity:1;"><g transform="translate(52.595034, 27.960187)"><path style="stroke:none" d="M 0 -2.515625 L 6.621094 -2.515625 L 6.621094 -5.828125 L 0 -5.828125 Z M 0 -2.515625 "/></g></g><g style="fill:#ffffff;fill-opacity:1;"><g transform="translate(59.215702, 27.960187)"><path style="stroke:none" d="M 6.621094 -2.515625 L 6.621094 -2.847656 L 3.640625 -5.828125 L 3.308594 -5.828125 Z M 6.621094 0.792969 L 6.621094 0.464844 L 0.332031 -5.828125 L 0 -5.828125 Z M 3.308594 0.792969 L 3.640625 0.792969 L 0 -2.847656 L 0 -2.515625 Z M 0 0.792969 L 0.332031 0.792969 L 0 0.464844 Z M 0 0.792969 "/></g></g><g style="fill:#ffffff;fill-opacity:1;"><g transform="translate(65.83637, 27.960187)"><path style="stroke:none" d="M 0 -2.515625 L 6.621094 -2.515625 L 6.621094 -5.828125 L 0 -5.828125 Z M 0 -2.515625 "/></g></g><g style="fill:#ffffff;fill-opacity:1;"><g transform="translate(72.457038, 27.960187)"><path style="stroke:none" d="M 0 -2.515625 L 6.621094 -2.515625 L 6.621094 -5.828125 L 0 -5.828125 Z M 0 -2.515625 "/></g></g><g style="fill:#ffffff;fill-opacity:1;"><g transform="translate(79.077706, 27.960187)"><path style="stroke:none" d="M 0 -2.515625 L 6.621094 -2.515625 L 6.621094 -5.828125 L 0 -5.828125 Z M 0 -2.515625 "/></g></g><g style="fill:#ffffff;fill-opacity:1;"><g transform="translate(85.698374, 27.960187)"><path style="stroke:none" d="M 6.621094 -2.515625 L 6.621094 -2.847656 L 3.640625 -5.828125 L 3.308594 -5.828125 Z M 6.621094 0.792969 L 6.621094 0.464844 L 0.332031 -5.828125 L 0 -5.828125 Z M 3.308594 0.792969 L 3.640625 0.792969 L 0 -2.847656 L 0 -2.515625 Z M 0 0.792969 L 0.332031 0.792969 L 0 0.464844 Z M 0 0.792969 "/></g></g><g style="fill:#ffffff;fill-opacity:1;"><g transform="translate(92.319043, 27.960187)"><path style="stroke:none" d="M 0 -2.515625 L 6.621094 -2.515625 L 6.621094 -5.828125 L 0 -5.828125 Z M 0 -2.515625 "/></g></g><g style="fill:#ffffff;fill-opacity:1;"><g transform="translate(98.939711, 27.960187)"><path style="stroke:none" d="M 0 -2.515625 L 6.621094 -2.515625 L 6.621094 -5.828125 L 0 -5.828125 Z M 0 -2.515625 "/></g></g><g style="fill:#ffffff;fill-opacity:1;"><g transform="translate(105.560379, 27.960187)"><path style="stroke:none" d="M 6.621094 -2.515625 L 6.621094 -2.847656 L 3.640625 -5.828125 L 3.308594 -5.828125 Z M 6.621094 0.792969 L 6.621094 0.464844 L 0.332031 -5.828125 L 0 -5.828125 Z M 3.308594 0.792969 L 3.640625 0.792969 L 0 -2.847656 L 0 -2.515625 Z M 0 0.792969 L 0.332031 0.792969 L 0 0.464844 Z M 0 0.792969 "/></g></g><g style="fill:#ffffff;fill-opacity:1;"><g transform="translate(112.181047, 27.960187)"><path style="stroke:none" d="M 6.621094 -2.515625 L 6.621094 -2.847656 L 3.640625 -5.828125 L 3.308594 -5.828125 Z M 6.621094 0.792969 L 6.621094 0.464844 L 0.332031 -5.828125 L 0 -5.828125 Z M 3.308594 0.792969 L 3.640625 0.792969 L 0 -2.847656 L 0 -2.515625 Z M 0 0.792969 L 0.332031 0.792969 L 0 0.464844 Z M 0 0.792969 "/></g></g><g style="fill:#ffffff;fill-opacity:1;"><g transform="translate(118.801715, 27.960187)"><path style="stroke:none" d="M 0 -2.515625 L 6.621094 -2.515625 L 6.621094 -5.828125 L 0 -5.828125 Z M 0 -2.515625 "/></g></g><g style="fill:#ffffff;fill-opacity:1;"><g transform="translate(125.422383, 27.960187)"><path style="stroke:none" d="M 0 -2.515625 L 6.621094 -2.515625 L 6.621094 -5.828125 L 0 -5.828125 Z M 0 -2.515625 "/></g></g><g style="fill:#ffffff;fill-opacity:1;"><g transform="translate(132.043051, 27.960187)"><path style="stroke:none" d="M 0 -2.515625 L 6.621094 -2.515625 L 6.621094 -5.828125 L 0 -5.828125 Z M 0 -2.515625 "/></g></g><g style="fill:#ffffff;fill-opacity:1;"><g transform="translate(138.66372, 27.960187)"><path style="stroke:none" d="M 6.621094 -2.515625 L 6.621094 -2.847656 L 3.640625 -5.828125 L 3.308594 -5.828125 Z M 6.621094 0.792969 L 6.621094 0.464844 L 0.332031 -5.828125 L 0 -5.828125 Z M 3.308594 0.792969 L 3.640625 0.792969 L 0 -2.847656 L 0 -2.515625 Z M 0 0.792969 L 0.332031 0.792969 L 0 0.464844 Z M 0 0.792969 "/></g></g><g style="fill:#ffffff;fill-opacity:1;"><g transform="translate(145.284388, 27.960187)"><path style="stroke:none" d="M 0 -2.515625 L 6.621094 -2.515625 L 6.621094 -5.828125 L 0 -5.828125 Z M 0 -2.515625 "/></g></g><g style="fill:#ffffff;fill-opacity:1;"><g transform="translate(151.905056, 27.960187)"><path style="stroke:none" d="M 0 -2.515625 L 6.621094 -2.515625 L 6.621094 -5.828125 L 0 -5.828125 Z M 0 -2.515625 "/></g></g><g style="fill:#ffffff;fill-opacity:1;"><g transform="translate(158.525724, 27.960187)"><path style="stroke:none" d="M 0 -2.515625 L 6.621094 -2.515625 L 6.621094 -5.828125 L 0 -5.828125 Z M 0 -2.515625 "/></g></g><g style="fill:#ffffff;fill-opacity:1;"><g transform="translate(165.146392, 27.960187)"><path style="stroke:none" d="M 6.621094 -2.515625 L 6.621094 -2.847656 L 3.640625 -5.828125 L 3.308594 -5.828125 Z M 6.621094 0.792969 L 6.621094 0.464844 L 0.332031 -5.828125 L 0 -5.828125 Z M 3.308594 0.792969 L 3.640625 0.792969 L 0 -2.847656 L 0 -2.515625 Z M 0 0.792969 L 0.332031 0.792969 L 0 0.464844 Z M 0 0.792969 "/></g></g><g style="fill:#ffffff;fill-opacity:1;"><g transform="translate(171.76706, 27.960187)"><path style="stroke:none" d="M 0 -2.515625 L 6.621094 -2.515625 L 6.621094 -5.828125 L 0 -5.828125 Z M 0 -2.515625 "/></g></g><g style="fill:#ffffff;fill-opacity:1;"><g transform="translate(178.387728, 27.960187)"><path style="stroke:none" d="M 0 -2.515625 L 6.621094 -2.515625 L 6.621094 -5.828125 L 0 -5.828125 Z M 0 -2.515625 "/></g></g><g style="fill:#ffffff;fill-opacity:1;"><g transform="translate(185.008397, 27.960187)"><path style="stroke:none" d="M 0 -2.515625 L 6.621094 -2.515625 L 6.621094 -5.828125 L 0 -5.828125 Z M 0 -2.515625 "/></g></g><g style="fill:#ffffff;fill-opacity:1;"><g transform="translate(191.629065, 27.960187)"><path style="stroke:none" d="M 6.621094 -2.515625 L 6.621094 -2.847656 L 3.640625 -5.828125 L 3.308594 -5.828125 Z M 6.621094 0.792969 L 6.621094 0.464844 L 0.332031 -5.828125 L 0 -5.828125 Z M 3.308594 0.792969 L 3.640625 0.792969 L 0 -2.847656 L 0 -2.515625 Z M 0 0.792969 L 0.332031 0.792969 L 0 0.464844 Z M 0 0.792969 "/></g></g><g style="fill:#ffffff;fill-opacity:1;"><g transform="translate(198.249733, 27.960187)"><path style="stroke:none" d="M 0 -2.515625 L 6.621094 -2.515625 L 6.621094 -5.828125 L 0 -5.828125 Z M 0 -2.515625 "/></g></g><g style="fill:#ffffff;fill-opacity:1;"><g transform="translate(204.870401, 27.960187)"><path style="stroke:none" d="M 0 -2.515625 L 6.621094 -2.515625 L 6.621094 -5.828125 L 0 -5.828125 Z M 0 -2.515625 "/></g></g><g style="fill:#ffffff;fill-opacity:1;"><g transform="translate(211.491069, 27.960187)"><path style="stroke:none" d="M 0 -2.515625 L 6.621094 -2.515625 L 6.621094 -5.828125 L 0 -5.828125 Z M 0 -2.515625 "/></g></g></g></svg>